<svg width="136" height="36" viewBox="0 0 136 36" fill="none" xmlns="http://www.w3.org/2000/svg">
<path d="M46.489 32.2047C44.6471 32.2047 43.1796 31.77 42.0428 30.9494C41.6674 32.2391 41.1297 33.4361 40.4287 34.5199C42.0907 35.406 44.1063 35.8553 46.489 35.8553C49.5217 35.8553 51.9315 35.122 53.7151 33.6545C55.4978 32.1881 56.5066 30.1538 56.7406 27.5537H52.7396C52.2393 30.6541 50.1561 32.2047 46.489 32.2047Z" fill="white"/>
<path d="M54.1156 11.5018C52.2654 9.80137 49.7225 8.95166 46.489 8.95166C44.1209 8.95166 42.1157 9.40615 40.46 10.2985C41.163 11.3614 41.7163 12.5211 42.0991 13.7733C43.2036 13.0088 44.6035 12.6022 46.3393 12.6022C48.4058 12.6022 50.0148 13.1274 51.165 14.1778C52.3143 15.2272 52.8894 16.6365 52.8894 18.4035V20.5033H42.7678V23.7534H56.8904V18.4024C56.8904 15.5018 55.9658 13.2012 54.1156 11.5018Z" fill="white"/>
<path d="M3.99997 35.2551H0V9.5517H2.09983L3.54963 12.9526C5.95003 10.286 8.7498 8.95264 11.951 8.95264H12.601V12.8528H12.0509C8.68324 12.8528 5.99995 14.053 3.99997 16.4534V35.2561V35.2551Z" fill="white"/>
<path d="M65.8388 35.2551H61.8389V9.5517H64.2393L65.6391 12.9526C68.0063 10.286 70.8227 8.95264 74.0905 8.95264C76.7904 8.95264 78.9485 9.8117 80.5668 11.5278C82.183 13.2449 82.9921 15.6037 82.9921 18.6041V35.2561H78.9921V19.0524C78.9921 16.9859 78.4742 15.3936 77.4414 14.2766C76.4077 13.1596 75.0244 12.6011 73.2907 12.6011C70.5897 12.6011 68.1061 13.951 65.8399 16.652V35.2551H65.8388Z" fill="white"/>
<path d="M100.239 35.8552C96.939 35.8552 94.1049 34.5218 91.7378 31.8541L90.3379 35.2551H87.9375V0H91.9375V12.7019C94.0373 10.2017 96.7549 8.95157 100.088 8.95157C102.889 8.95157 105.122 9.78568 106.789 11.4518C108.455 13.119 109.289 15.4362 109.289 18.4034V26.4044C109.289 29.3716 108.465 31.6888 106.814 33.3549C105.164 35.0231 102.971 35.8562 100.238 35.8562L100.239 35.8552ZM99.4891 32.2046C101.222 32.2046 102.622 31.6461 103.69 30.5291C104.756 29.4121 105.289 27.9374 105.289 26.1038V18.7029C105.289 16.8704 104.756 15.3946 103.69 14.2776C102.623 13.1606 101.24 12.6021 99.5391 12.6021C96.9712 12.6021 94.4387 13.952 91.9385 16.653V28.1547C94.4387 30.8557 96.9556 32.2057 99.4902 32.2057L99.4891 32.2046Z" fill="white"/>
<path d="M117.977 5.50074H113.977V0H117.977V5.50074ZM117.977 35.2551H113.977V9.55167H117.977V35.2551Z" fill="white"/>
<path d="M135.999 35.255H133.599C130.631 35.255 128.514 34.4719 127.248 32.9046C126.015 31.3383 125.398 29.3373 125.398 26.9036V13.0524H121.197V9.55166H125.398V4.20068H129.399V9.55166H136V13.0524H129.399V26.8037C129.399 30.0039 130.799 31.6045 133.6 31.6045H136V35.255H135.999Z" fill="white"/>
<path d="M22.4698 31.5869C21.8666 31.3332 21.3133 31.0222 20.8505 30.6051C19.6669 29.5391 19.0752 28.1049 19.0752 26.3046V18.4035C19.0752 16.6365 19.6586 15.2283 20.8255 14.1778C21.2967 13.7535 21.8573 13.4384 22.4698 13.1856V9.2959C20.682 9.69631 19.174 10.4462 17.9498 11.5517C16.0331 13.2855 15.0752 15.6027 15.0752 18.5033V26.4045C15.0752 29.3051 16.0331 31.6046 17.9498 33.3051C19.174 34.3909 20.682 35.1251 22.4698 35.5183V31.5869Z" fill="white"/>
<path d="M33.6686 27.5537C33.1683 30.6541 31.0851 32.2047 27.418 32.2047V35.8553C30.4507 35.8553 32.8605 35.122 34.6441 33.6545C36.4267 32.1881 37.4356 30.1538 37.6696 27.5537H33.6686Z" fill="white"/>
<path d="M35.0437 11.5018C33.1935 9.80137 30.6506 8.95166 27.4171 8.95166V12.6126C29.4078 12.6386 30.972 13.1544 32.0931 14.1778C33.2424 15.2272 33.8175 16.6365 33.8175 18.4035V20.5033H24.0225V23.7534H37.8185V18.4024C37.8185 15.5018 36.8939 13.2012 35.0437 11.5018Z" fill="white"/>
</svg>
